<?xml version="1.0" standalone="no"?>
<!DOCTYPE svg PUBLIC "-//W3C//DTD SVG 20010904//EN"
 "http://www.w3.org/TR/2001/REC-SVG-20010904/DTD/svg10.dtd">
<svg version="1.0" xmlns="http://www.w3.org/2000/svg"
 width="16.000000pt" height="16.000000pt" viewBox="0 0 16.000000 16.000000"
 preserveAspectRatio="xMidYMid meet">
<metadata>
Created by potrace 1.11, written by Peter Selinger 2001-2013
</metadata>
<g transform="translate(0.000000,16.000000) scale(0.006154,-0.006154)"
fill="#000000" stroke="none">
<path d="M0 1300 l0 -1300 1300 0 1300 0 0 1300 0 1300 -1300 0 -1300 0 0
-1300z m1665 698 l-11 -53 -66 -6 c-73 -6 -118 -31 -137 -76 -6 -16 -62 -273
-124 -571 -89 -425 -111 -545 -100 -549 7 -3 97 -3 201 -1 204 5 233 11 286
64 35 36 67 98 97 192 l23 72 68 0 c49 0 66 -3 63 -12 -2 -7 -27 -109 -56
-225 l-51 -213 -587 0 -588 0 10 54 10 54 63 4 c69 4 110 26 131 70 20 40 235
1068 229 1092 -7 30 -46 46 -113 46 -55 0 -55 0 -49 26 4 15 10 39 13 55 l6
29 347 0 347 0 -12 -52z"/>
</g>
</svg>
